<svg width="1440" height="157" viewBox="0 0 1440 157" fill="none" xmlns="http://www.w3.org/2000/svg">
<path d="M63.6386 54.6698C63.6386 54.6698 73.7639 23.2409 109.831 24.5929C145.898 25.945 155.314 54.8471 154.446 62.8928C154.446 62.8928 179.336 51.4117 190.559 77.1665C201.781 102.921 175.405 122.936 156.046 120.608C136.687 118.281 99.157 154.054 62.1073 135.436C25.0575 116.818 12.8981 129.297 -10.2094 123.578C-32.4941 118.082 -46.0021 112.496 -65.9554 114.713L-68.241 115.001C-89.4743 117.971 -46.1392 103.919 -32.7912 103.919C-32.7912 103.919 -16.4491 70.0518 2.84143 73.9971C22.132 77.9423 19.5264 87.5616 19.5264 87.5616C19.5264 87.5616 24.6233 43.4991 63.6386 54.6698Z" fill="white"/>
<path d="M-10.2094 123.579C-32.4941 118.082 -46.0021 112.497 -65.9554 114.713L-68.241 115.001C-69.7522 115.246 -71.2803 115.379 -72.8123 115.4C-54.2074 108.219 -21.4775 109.571 -5.50105 113.405C10.4754 117.24 18.3378 100.284 18.3378 100.284C18.3378 100.284 21.3092 109.549 45.148 110.989C68.987 112.43 73.101 92.6152 73.101 92.6152C73.101 92.6152 71.844 110.347 99.8655 118.414C127.887 126.482 146.149 100.683 146.149 100.683C149.96 106.797 155.878 111.405 162.857 113.693C174.902 117.905 190.124 101.68 190.147 101.658C183.793 114.292 168.411 122.116 155.863 120.609C136.504 118.259 98.9741 154.055 61.9244 135.437C24.8747 116.819 12.8981 129.297 -10.2094 123.579Z" fill="#E1FFFF"/>
<path d="M874.639 54.6698C874.639 54.6698 884.764 23.2409 920.831 24.5929C956.898 25.945 966.314 54.8471 965.446 62.8928C965.446 62.8928 990.336 51.4117 1001.56 77.1665C1012.78 102.921 986.405 122.936 967.046 120.608C947.687 118.281 910.157 154.054 873.107 135.436C836.058 116.818 823.898 129.297 800.791 123.578C778.506 118.082 764.998 112.496 745.045 114.713L742.759 115.001C721.526 117.971 764.861 103.919 778.209 103.919C778.209 103.919 794.551 70.0518 813.841 73.9971C833.132 77.9423 830.526 87.5616 830.526 87.5616C830.526 87.5616 835.623 43.4991 874.639 54.6698Z" fill="white"/>
<path d="M800.791 123.579C778.506 118.082 764.998 112.497 745.045 114.713L742.759 115.001C741.248 115.246 739.72 115.379 738.188 115.4C756.793 108.219 789.523 109.571 805.499 113.405C821.475 117.24 829.338 100.284 829.338 100.284C829.338 100.284 832.309 109.549 856.148 110.989C879.987 112.43 884.101 92.6152 884.101 92.6152C884.101 92.6152 882.844 110.347 910.866 118.414C938.887 126.482 957.149 100.683 957.149 100.683C960.96 106.797 966.878 111.405 973.857 113.693C985.902 117.905 1001.12 101.68 1001.15 101.658C994.793 114.292 979.411 122.116 966.863 120.609C947.504 118.259 909.974 154.055 872.924 135.437C835.875 116.819 823.898 129.297 800.791 123.579Z" fill="#E1FFFF"/>
<path d="M1373.6 41.3718C1373.6 41.3718 1363.48 9.94282 1327.41 11.2948C1291.35 12.6469 1281.93 41.549 1282.8 49.5947C1282.8 49.5947 1257.91 38.1136 1246.68 63.8685C1235.46 89.6233 1261.84 109.638 1281.2 107.31C1300.56 104.983 1338.09 140.756 1375.14 122.138C1412.19 103.52 1424.35 115.999 1447.45 110.28C1469.74 104.784 1483.25 99.1983 1503.2 101.415L1505.48 101.703C1526.72 104.673 1483.38 90.6207 1470.03 90.6207C1470.03 90.6207 1453.69 56.7537 1434.4 60.699C1415.11 64.6442 1417.72 74.2635 1417.72 74.2635C1417.72 74.2635 1412.62 30.201 1373.6 41.3718Z" fill="white"/>
<path d="M1447.45 110.281C1469.74 104.784 1483.25 99.1985 1503.2 101.415L1505.48 101.703C1507 101.948 1508.52 102.081 1510.06 102.102C1491.45 94.9208 1458.72 96.2728 1442.74 100.107C1426.77 103.942 1418.91 86.986 1418.91 86.986C1418.91 86.986 1415.93 96.2506 1392.1 97.6913C1368.26 99.132 1364.14 79.3171 1364.14 79.3171C1364.14 79.3171 1365.4 97.0485 1337.38 105.116C1309.36 113.184 1291.09 87.3849 1291.09 87.3849C1287.28 93.4985 1281.36 98.1074 1274.39 100.395C1262.34 104.607 1247.12 88.3823 1247.1 88.3602C1253.45 100.994 1268.83 108.818 1281.38 107.311C1300.74 104.961 1338.27 140.756 1375.32 122.138C1412.37 103.521 1424.35 115.999 1447.45 110.281Z" fill="#E1FFFF"/>
<path d="M1093.02 122.872C1093.02 122.872 1105.68 157.619 1150.75 156.124C1195.83 154.629 1207.6 122.676 1206.51 113.781C1206.51 113.781 1237.62 126.474 1251.64 98.0002C1265.67 69.5265 1232.71 47.3992 1208.51 49.9721C1184.32 52.5451 1137.41 12.9954 1091.11 33.5789C1044.8 54.1623 1029.61 40.3665 1000.73 46.6886C972.874 52.7656 955.992 58.9407 931.054 56.4902L928.198 56.1717C901.66 52.8881 955.82 68.4237 972.503 68.4237C972.503 68.4237 992.927 105.866 1017.04 101.504C1041.15 97.1426 1037.89 86.5078 1037.89 86.5078C1037.89 86.5078 1044.26 135.222 1093.02 122.872Z" fill="white"/>
<path d="M1000.73 46.6884C972.874 52.7654 955.992 58.9405 931.054 56.49L928.197 56.1715C926.309 55.901 924.399 55.7535 922.484 55.7304C945.737 63.6698 986.643 62.175 1006.61 57.9358C1026.58 53.6966 1036.4 72.4422 1036.4 72.4422C1036.4 72.4422 1040.12 62.1995 1069.91 60.6067C1099.7 59.0139 1104.85 80.9207 1104.85 80.9207C1104.85 80.9207 1103.28 61.3174 1138.3 52.3979C1173.32 43.4784 1196.14 72.0012 1196.14 72.0012C1200.9 65.2421 1208.3 60.1467 1217.02 57.6172C1232.08 52.9614 1251.1 70.8985 1251.13 70.923C1243.19 56.9556 1223.96 48.3057 1208.28 49.9719C1184.09 52.5694 1137.18 12.9952 1090.88 33.5787C1044.57 54.1621 1029.61 40.3663 1000.73 46.6884Z" fill="#F8FFFF"/>
<path d="M660.111 123.123C660.111 123.123 672.993 157.961 718.879 156.462C764.765 154.964 776.745 122.926 775.64 114.008C775.64 114.008 807.307 126.734 821.584 98.1854C835.862 69.6367 802.305 47.4511 777.676 50.0309C753.046 52.6106 705.299 12.9568 658.162 33.5944C611.026 54.2321 595.556 40.3999 566.158 46.7387C537.806 52.8317 520.62 59.023 495.235 56.5661L492.327 56.2467C465.313 52.9545 520.446 68.531 537.428 68.531C537.428 68.531 558.219 106.072 582.761 101.699C607.304 97.3255 603.989 86.6627 603.989 86.6627C603.989 86.6627 610.473 135.505 660.111 123.123Z" fill="white"/>
<path d="M566.158 46.7384C537.806 52.8314 520.62 59.0227 495.235 56.5658L492.327 56.2464C490.404 55.9752 488.46 55.8274 486.511 55.8042C510.181 63.7645 551.822 62.2658 572.148 58.0154C592.474 53.765 602.477 72.56 602.477 72.56C602.477 72.56 606.257 62.2903 636.586 60.6934C666.915 59.0964 672.149 81.0608 672.149 81.0608C672.149 81.0608 670.55 61.4059 706.2 52.4629C741.851 43.5199 765.085 72.1178 765.085 72.1178C769.933 65.341 777.463 60.2322 786.341 57.696C801.666 53.0279 821.032 71.0122 821.061 71.0368C812.977 57.0326 793.407 48.3599 777.443 50.0306C752.813 52.6348 705.066 12.9565 657.93 33.5941C610.793 54.2318 595.556 40.3997 566.158 46.7384Z" fill="#F8FFFF"/>
<path d="M408.87 36.5664C408.87 36.5664 421.146 -1.58994 464.873 0.0514794C508.599 1.6929 520.016 36.7816 518.963 46.5494C518.963 46.5494 549.139 32.6108 562.745 63.8785C576.351 95.1462 544.373 119.445 520.903 116.619C497.432 113.794 451.932 157.224 407.014 134.621C362.095 112.018 347.353 127.167 319.338 120.225C292.321 113.552 275.944 106.771 251.753 109.462L248.982 109.811C223.239 113.417 275.778 96.3571 291.961 96.3571C291.961 96.3571 311.773 55.2409 335.161 60.0306C358.548 64.8203 355.389 76.4986 355.389 76.4986C355.389 76.4986 361.569 23.0045 408.87 36.5664Z" fill="white"/>
<path d="M319.338 120.225C292.321 113.552 275.944 106.771 251.753 109.462L248.982 109.811C247.15 110.108 245.297 110.27 243.44 110.296C265.996 101.577 305.677 103.219 325.047 107.874C344.416 112.529 353.949 91.9442 353.949 91.9442C353.949 91.9442 357.551 103.192 386.453 104.941C415.354 106.69 420.342 82.6338 420.342 82.6338C420.342 82.6338 418.818 104.161 452.791 113.955C486.764 123.75 508.904 92.4285 508.904 92.4285C513.524 99.8507 520.7 105.446 529.16 108.224C543.764 113.336 562.219 93.6394 562.246 93.6125C554.543 108.95 535.894 118.449 520.681 116.619C497.21 113.767 451.71 157.224 406.792 134.621C361.874 112.018 347.354 127.167 319.338 120.225Z" fill="#E1FFFF"/>
<path d="M214.639 126.052C214.639 126.052 224.764 157.481 260.831 156.128C296.898 154.776 306.314 125.874 305.446 117.829C305.446 117.829 330.336 129.31 341.559 103.555C352.781 77.8 326.405 57.7857 307.046 60.1129C287.687 62.4402 250.157 26.6671 213.107 45.285C176.058 63.903 163.898 51.4246 140.791 57.1429C118.506 62.6397 104.998 68.2251 85.0446 66.0086L82.759 65.7205C61.5257 62.7505 104.861 76.8026 118.209 76.8026C118.209 76.8026 134.551 110.67 153.841 106.724C173.132 102.779 170.526 93.1598 170.526 93.1598C170.526 93.1598 175.623 137.222 214.639 126.052Z" fill="white"/>
<path d="M140.791 57.1427C118.506 62.6395 104.998 68.2249 85.0446 66.0084L82.759 65.7203C81.2478 65.4756 79.7197 65.3423 78.1877 65.3214C96.7926 72.5026 129.523 71.1505 145.499 67.3161C161.475 63.4817 169.338 80.4374 169.338 80.4374C169.338 80.4374 172.309 71.1727 196.148 69.732C219.987 68.2913 224.101 88.1062 224.101 88.1062C224.101 88.1062 222.844 70.3748 250.866 62.307C278.887 54.2392 297.149 80.0384 297.149 80.0384C300.96 73.9248 306.878 69.316 313.857 67.028C325.902 62.8168 341.124 79.041 341.147 79.0632C334.793 66.4296 319.411 58.6056 306.863 60.1127C287.504 62.4621 249.974 26.6669 212.924 45.2848C175.875 63.9028 163.898 51.4244 140.791 57.1427Z" fill="#F8FFFF"/>
</svg>
