<svg width="20" height="31" viewBox="0 0 20 31" fill="none" xmlns="http://www.w3.org/2000/svg">
<path d="M9.875 0.5V11.5833L19.25 15.7767L9.875 0.5Z" fill="#8FFCF3"/>
<path d="M9.875 0.5L0.5 15.7767L9.875 11.585V0.5Z" fill="#CABCF8"/>
<path d="M9.875 22.9617V30.4984L19.25 17.525L9.875 22.9617Z" fill="#CBA7F5"/>
<path d="M9.875 30.5V22.9617L0.5 17.525L9.875 30.5Z" fill="#74A0F3"/>
<path d="M9.875 21.2166L19.25 15.7783L9.875 11.5833V21.2166Z" fill="#CBA7F5"/>
<path d="M0.5 15.7783L9.875 21.215V11.585L0.5 15.7783Z" fill="#74A0F3"/>
<path fill-rule="evenodd" clip-rule="evenodd" d="M9.875 21.215L0.5 15.7767L9.875 0.5L19.25 15.7767L9.875 21.215ZM1.12333 15.3333L9.72333 1.31667V11.5083L1.12333 15.3333ZM0.995 15.7167L9.725 11.8383V20.7783L0.995 15.7167ZM10.025 11.8383V20.7783L18.7467 15.715L10.025 11.8383ZM10.025 11.5083L18.625 15.3333L10.025 1.31667V11.5083Z" fill="#202699"/>
<path fill-rule="evenodd" clip-rule="evenodd" d="M9.875 22.8433L0.5 17.5167L9.875 30.5L19.25 17.5167L9.875 22.8433ZM1.55 18.455L9.725 23.105V29.78L1.55 18.455ZM10.025 23.105V29.78L18.2 18.455L10.025 23.105Z" fill="#202699"/>
</svg>
