<svg width="1324" height="275" viewBox="0 0 1324 275" fill="none" xmlns="http://www.w3.org/2000/svg">
<path d="M134.264 45.1249C134.264 45.1249 138.403 31.4293 153.146 32.0185C167.889 32.6076 171.739 45.2022 171.384 48.7082C171.384 48.7082 181.558 43.7051 186.146 54.9282C190.733 66.1512 179.951 74.8728 172.038 73.8587C164.124 72.8445 148.783 88.4332 133.638 80.3201C118.493 72.2071 113.522 77.6447 104.076 75.1529C94.9667 72.7576 89.4449 70.3237 81.2884 71.2895L80.3541 71.4151C71.6744 72.7093 89.3889 66.5859 94.8453 66.5859C94.8453 66.5859 101.526 51.8279 109.411 53.547C117.297 55.2662 116.232 59.458 116.232 59.458C116.232 59.458 118.315 40.2571 134.264 45.1249Z" fill="white"/>
<path d="M104.076 75.1529C94.9668 72.7577 89.445 70.3237 81.2885 71.2896L80.3542 71.4151C79.7365 71.5218 79.1118 71.5799 78.4856 71.589C86.0909 68.4597 99.4701 69.0488 106.001 70.7197C112.532 72.3906 115.746 65.002 115.746 65.002C115.746 65.002 116.96 69.0392 126.705 69.667C136.45 70.2948 138.132 61.6602 138.132 61.6602C138.132 61.6602 137.618 69.3869 149.072 72.9025C160.527 76.4182 167.992 65.1758 167.992 65.1758C169.55 67.8399 171.969 69.8483 174.822 70.8453C179.746 72.6804 185.968 65.6104 185.978 65.6008C183.38 71.1061 177.092 74.5155 171.963 73.8587C164.049 72.8349 148.708 88.4332 133.563 80.3202C118.418 72.2071 113.522 77.6448 104.076 75.1529Z" fill="#E1FFFF"/>
<path d="M457.826 61.444C457.826 61.444 464.949 30.7197 490.321 32.0415C515.693 33.3632 522.318 61.6173 521.707 69.4825C521.707 69.4825 539.217 58.2589 547.111 83.4362C555.006 108.614 536.451 128.179 522.832 125.904C509.214 123.629 482.812 158.6 456.749 140.4C430.685 122.199 422.131 134.398 405.875 128.808C390.199 123.434 380.696 117.974 366.659 120.141L365.051 120.422C350.114 123.326 380.6 109.589 389.99 109.589C389.99 109.589 401.486 76.4811 415.056 80.3378C428.627 84.1946 426.794 93.5982 426.794 93.5982C426.794 93.5982 430.379 50.5237 457.826 61.444Z" fill="white"/>
<path d="M405.875 128.808C390.199 123.434 380.696 117.974 366.659 120.141L365.051 120.423C363.988 120.662 362.913 120.792 361.836 120.813C374.924 113.792 397.949 115.114 409.188 118.862C420.427 122.611 425.958 106.035 425.958 106.035C425.958 106.035 428.048 115.092 444.818 116.501C461.588 117.909 464.482 98.5386 464.482 98.5386C464.482 98.5386 463.598 115.872 483.311 123.759C503.023 131.646 515.87 106.425 515.87 106.425C518.551 112.402 522.715 116.908 527.624 119.144C536.097 123.261 546.806 107.4 546.822 107.379C542.352 119.729 531.531 127.378 522.704 125.904C509.085 123.608 482.684 158.6 456.62 140.4C430.556 122.199 422.131 134.398 405.875 128.808Z" fill="#E1FFFF"/>
<path d="M136.639 137.444C136.639 137.444 146.764 106.72 182.831 108.041C218.898 109.363 228.314 137.617 227.446 145.483C227.446 145.483 252.336 134.259 263.559 159.436C274.781 184.614 248.405 204.179 229.046 201.904C209.687 199.629 172.157 234.6 135.107 216.4C98.0575 198.199 85.8981 210.398 62.7906 204.808C40.5059 199.434 26.9979 193.974 7.04458 196.141L4.75897 196.422C-16.4743 199.326 26.8608 185.589 40.2088 185.589C40.2088 185.589 56.5509 152.481 75.8414 156.338C95.132 160.195 92.5264 169.598 92.5264 169.598C92.5264 169.598 97.6233 126.524 136.639 137.444Z" fill="white"/>
<path d="M522.462 180.444C522.462 180.444 530.883 149.72 560.876 151.041C590.87 152.363 598.701 180.617 597.979 188.483C597.979 188.483 618.678 177.259 628.011 202.436C637.343 227.614 615.409 247.179 599.309 244.904C583.21 242.629 552 277.6 521.189 259.4C490.378 241.199 480.266 253.398 461.049 247.808C442.517 242.434 431.283 236.974 414.69 239.141L412.789 239.422C395.131 242.326 431.169 228.589 442.27 228.589C442.27 228.589 455.86 195.481 471.902 199.338C487.945 203.195 485.778 212.598 485.778 212.598C485.778 212.598 490.017 169.524 522.462 180.444Z" fill="white"/>
<path d="M461.049 247.808C442.517 242.434 431.284 236.974 414.69 239.141L412.789 239.423C411.533 239.662 410.262 239.792 408.988 239.813C424.46 232.792 451.679 234.114 464.965 237.862C478.251 241.611 484.789 225.035 484.789 225.035C484.789 225.035 487.26 234.092 507.085 235.501C526.91 236.909 530.331 217.539 530.331 217.539C530.331 217.539 529.286 234.872 552.589 242.759C575.892 250.646 591.079 225.425 591.079 225.425C594.248 231.402 599.17 235.908 604.974 238.144C614.99 242.261 627.649 226.4 627.668 226.379C622.384 238.729 609.592 246.378 599.157 244.904C583.058 242.608 551.848 277.6 521.037 259.4C490.226 241.199 480.266 253.398 461.049 247.808Z" fill="#E1FFFF"/>
<path d="M1224.6 190.444C1224.6 190.444 1217.29 159.72 1191.24 161.041C1165.19 162.363 1158.39 190.617 1159.02 198.483C1159.02 198.483 1141.04 187.259 1132.94 212.436C1124.83 237.614 1143.88 257.179 1157.86 254.904C1171.84 252.629 1198.95 287.6 1225.7 269.4C1252.46 251.199 1261.24 263.398 1277.93 257.808C1294.02 252.434 1303.78 246.974 1318.19 249.141L1319.84 249.422C1335.18 252.326 1303.88 238.589 1294.24 238.589C1294.24 238.589 1282.44 205.481 1268.51 209.338C1254.57 213.195 1256.46 222.598 1256.46 222.598C1256.46 222.598 1252.78 179.524 1224.6 190.444Z" fill="white"/>
<path d="M1277.93 257.808C1294.03 252.434 1303.78 246.974 1318.19 249.141L1319.84 249.423C1320.93 249.662 1322.04 249.792 1323.14 249.813C1309.71 242.792 1286.07 244.114 1274.53 247.862C1262.99 251.611 1257.31 235.035 1257.31 235.035C1257.31 235.035 1255.17 244.092 1237.95 245.501C1220.74 246.909 1217.77 227.539 1217.77 227.539C1217.77 227.539 1218.67 244.872 1198.44 252.759C1178.2 260.646 1165.01 235.425 1165.01 235.425C1162.26 241.402 1157.98 245.908 1152.94 248.144C1144.25 252.261 1133.25 236.4 1133.24 236.379C1137.82 248.729 1148.93 256.378 1158 254.904C1171.98 252.608 1199.08 287.6 1225.84 269.4C1252.59 251.199 1261.24 263.398 1277.93 257.808Z" fill="#E1FFFF"/>
<path d="M998.317 49.3895C998.317 49.3895 1012.98 -2.1475 1065.21 0.0695321C1117.44 2.28656 1131.07 49.6802 1129.82 62.8733C1129.82 62.8733 1165.86 44.0467 1182.11 86.2794C1198.36 128.512 1160.17 161.331 1132.13 157.515C1104.1 153.699 1049.75 212.36 996.1 181.83C942.447 151.3 924.839 171.762 891.376 162.385C859.106 153.372 839.544 144.213 810.65 147.847L807.34 148.32C776.591 153.19 839.346 130.148 858.675 130.148C858.675 130.148 882.341 74.6127 910.276 81.0821C938.211 87.5515 934.437 103.325 934.437 103.325C934.437 103.325 941.818 31.0717 998.317 49.3895Z" fill="white"/>
<path d="M891.377 162.386C859.106 153.372 839.544 144.213 810.65 147.848L807.34 148.32C805.151 148.721 802.939 148.94 800.72 148.974C827.662 137.199 875.059 139.416 898.195 145.703C921.33 151.991 932.716 124.187 932.716 124.187C932.716 124.187 937.019 139.379 971.541 141.742C1006.06 144.104 1012.02 111.612 1012.02 111.612C1012.02 111.612 1010.2 140.688 1050.78 153.917C1091.36 167.147 1117.8 124.841 1117.8 124.841C1123.32 134.866 1131.89 142.424 1142 146.176C1159.44 153.081 1181.48 126.477 1181.52 126.441C1172.32 147.157 1150.04 159.987 1131.87 157.515C1103.83 153.663 1049.49 212.36 995.835 181.83C942.182 151.3 924.839 171.762 891.377 162.386Z" fill="#E1FFFF"/>
</svg>
