<svg width="50" height="50" viewBox="0 0 50 50" fill="none" xmlns="http://www.w3.org/2000/svg">
<rect width="50" height="50" rx="25" fill="white"/>
<path d="M26.3707 11.6667C27.8706 11.6707 28.632 11.6787 29.2893 11.6974L29.548 11.7067C29.8467 11.7174 30.1413 11.7307 30.4973 11.7467C31.916 11.8134 32.884 12.0374 33.7333 12.3667C34.6133 12.7054 35.3547 13.1641 36.096 13.9041C36.7742 14.5704 37.2989 15.3767 37.6333 16.2667C37.9627 17.1161 38.1867 18.0841 38.2533 19.5041C38.2693 19.8587 38.2826 20.1534 38.2933 20.4534L38.3013 20.7121C38.3213 21.3681 38.3293 22.1294 38.332 23.6294L38.3333 24.6241V26.3707C38.3366 27.3433 38.3263 28.3158 38.3026 29.2881L38.2947 29.5467C38.284 29.8467 38.2706 30.1414 38.2547 30.4961C38.188 31.9161 37.9613 32.8827 37.6333 33.7334C37.2989 34.6235 36.7742 35.4298 36.096 36.0961C35.4297 36.7743 34.6234 37.299 33.7333 37.6334C32.884 37.9627 31.916 38.1868 30.4973 38.2534L29.548 38.2934L29.2893 38.3014C28.632 38.3201 27.8706 38.3294 26.3707 38.3321L25.376 38.3334H23.6307C22.6577 38.3368 21.6847 38.3266 20.712 38.3027L20.4533 38.2948C20.1368 38.2828 19.8203 38.269 19.504 38.2534C18.0853 38.1868 17.1173 37.9627 16.2667 37.6334C15.3771 37.2988 14.5712 36.7742 13.9053 36.0961C13.2266 35.4299 12.7015 34.6236 12.3667 33.7334C12.0373 32.8841 11.8133 31.9161 11.7467 30.4961L11.7067 29.5467L11.7 29.2881C11.6754 28.3158 11.6643 27.3433 11.6667 26.3707V23.6294C11.663 22.6569 11.6727 21.6843 11.696 20.7121L11.7053 20.4534C11.716 20.1534 11.7293 19.8587 11.7453 19.5041C11.812 18.0841 12.036 17.1174 12.3653 16.2667C12.7009 15.3763 13.2269 14.57 13.9067 13.9041C14.5722 13.2261 15.3776 12.7015 16.2667 12.3667C17.1173 12.0374 18.084 11.8134 19.504 11.7467C19.8587 11.7307 20.1547 11.7174 20.4533 11.7067L20.712 11.6987C21.6842 11.6751 22.6568 11.6648 23.6293 11.6681L26.3707 11.6667ZM25 18.3334C23.2319 18.3334 21.5362 19.0358 20.2859 20.286C19.0357 21.5363 18.3333 23.232 18.3333 25.0001C18.3333 26.7682 19.0357 28.4639 20.2859 29.7141C21.5362 30.9644 23.2319 31.6667 25 31.6667C26.7681 31.6667 28.4638 30.9644 29.714 29.7141C30.9643 28.4639 31.6667 26.7682 31.6667 25.0001C31.6667 23.232 30.9643 21.5363 29.714 20.286C28.4638 19.0358 26.7681 18.3334 25 18.3334ZM25 21.0001C25.5253 21 26.0454 21.1034 26.5308 21.3043C27.0161 21.5052 27.4571 21.7998 27.8286 22.1712C28.2001 22.5426 28.4948 22.9835 28.6959 23.4687C28.897 23.954 29.0006 24.4741 29.0007 24.9994C29.0007 25.5247 28.8974 26.0449 28.6964 26.5302C28.4955 27.0155 28.2009 27.4565 27.8295 27.828C27.4582 28.1995 27.0173 28.4942 26.532 28.6953C26.0467 28.8964 25.5266 29 25.0013 29.0001C23.9405 29.0001 22.923 28.5787 22.1729 27.8285C21.4227 27.0784 21.0013 26.0609 21.0013 25.0001C21.0013 23.9392 21.4227 22.9218 22.1729 22.1717C22.923 21.4215 23.9405 21.0001 25.0013 21.0001M32.0013 16.3334C31.5593 16.3334 31.1354 16.509 30.8228 16.8216C30.5102 17.1341 30.3347 17.5581 30.3347 18.0001C30.3347 18.4421 30.5102 18.866 30.8228 19.1786C31.1354 19.4912 31.5593 19.6667 32.0013 19.6667C32.4433 19.6667 32.8673 19.4912 33.1798 19.1786C33.4924 18.866 33.668 18.4421 33.668 18.0001C33.668 17.5581 33.4924 17.1341 33.1798 16.8216C32.8673 16.509 32.4433 16.3334 32.0013 16.3334Z" fill="#2287AA"/>
</svg>
