<svg width="53" height="53" viewBox="0 0 53 53" fill="none" xmlns="http://www.w3.org/2000/svg">
<path fill-rule="evenodd" clip-rule="evenodd" d="M43.6742 9.78284C44.22 9.55315 44.8173 9.47394 45.404 9.55343C45.9907 9.63293 46.5454 9.86823 47.0103 10.2349C47.4753 10.6015 47.8334 11.086 48.0476 11.638C48.2617 12.19 48.3239 12.7894 48.2278 13.3736L43.2193 43.7536C42.7335 46.6841 39.5182 48.3646 36.8306 46.9049C34.5825 45.6837 31.2435 43.8022 28.2402 41.839C26.7385 40.8563 22.1386 37.7094 22.7039 35.4702C23.1898 33.5556 30.9189 26.3608 35.3356 22.0833C37.0691 20.4027 36.2785 19.4333 34.2314 20.9791C29.1478 24.8172 20.9858 30.6538 18.2873 32.2968C15.9067 33.7455 14.6656 33.9928 13.1816 33.7455C10.4742 33.295 7.9633 32.5971 5.91396 31.7469C3.14472 30.5986 3.27942 26.7914 5.91176 25.6828L43.6742 9.78284Z" fill="white"/>
</svg>
