<svg width="361" height="225" viewBox="0 0 361 225" fill="none" xmlns="http://www.w3.org/2000/svg">
<path d="M304.455 105.256C304.455 105.256 300.401 89.3367 285.96 90.0215C271.52 90.7063 267.749 105.346 268.097 109.421C268.097 109.421 258.131 103.606 253.638 116.651C249.145 129.696 259.705 139.834 267.456 138.655C275.208 137.476 290.234 155.596 305.068 146.166C319.902 136.735 324.771 143.056 334.022 140.159C342.945 137.375 348.353 134.546 356.342 135.669L357.257 135.815C365.759 137.319 348.408 130.201 343.064 130.201C343.064 130.201 336.521 113.047 328.797 115.046C321.073 117.044 322.117 121.916 322.117 121.916C322.117 121.916 320.076 99.5978 304.455 105.256Z" fill="white"/>
<path d="M334.023 140.16C342.945 137.375 348.354 134.546 356.343 135.669L357.258 135.815C357.863 135.939 358.475 136.006 359.088 136.017C351.639 132.38 338.534 133.064 332.138 135.007C325.741 136.949 322.593 128.36 322.593 128.36C322.593 128.36 321.403 133.053 311.858 133.783C302.314 134.513 300.667 124.476 300.667 124.476C300.667 124.476 301.17 133.457 289.95 137.544C278.731 141.63 271.419 128.563 271.419 128.563C269.893 131.659 267.524 133.994 264.73 135.153C259.907 137.286 253.812 129.068 253.803 129.057C256.347 135.456 262.506 139.419 267.53 138.655C275.281 137.465 290.307 155.596 305.141 146.166C319.976 136.736 324.771 143.056 334.023 140.16Z" fill="#E1FFFF"/>
<path d="M281.647 17.2694C281.647 17.2694 275.814 -0.750892 255.038 0.0243125C234.261 0.799517 228.836 17.3711 229.337 21.9842C229.337 21.9842 214.998 15.4013 208.534 30.1683C202.069 44.9353 217.263 56.4109 228.415 55.0765C239.567 53.7422 261.186 74.2533 282.529 63.5784C303.872 52.9034 310.877 60.0582 324.188 56.7794C337.025 53.6278 344.807 50.4253 356.301 51.6961L357.618 51.8614C369.849 53.5643 344.886 45.5072 337.196 45.5072C337.196 45.5072 327.782 26.089 316.67 28.3511C305.557 30.6131 307.058 36.1285 307.058 36.1285C307.058 36.1285 304.122 10.8645 281.647 17.2694Z" fill="white"/>
<path d="M324.188 56.7796C337.025 53.6279 344.807 50.4254 356.301 51.6963L357.618 51.8615C358.488 52.0018 359.368 52.0782 360.251 52.0902C349.533 47.9727 330.679 48.748 321.476 50.9465C312.272 53.145 307.743 43.4232 307.743 43.4232C307.743 43.4232 306.031 48.7353 292.299 49.5613C278.566 50.3873 276.196 39.0261 276.196 39.0261C276.196 39.0261 276.92 49.1927 260.778 53.8185C244.636 58.4444 234.116 43.6519 234.116 43.6519C231.921 47.1573 228.512 49.7998 224.491 51.1117C217.553 53.5263 208.784 44.2238 208.771 44.2111C212.431 51.4548 221.292 55.9408 228.52 55.0767C239.672 53.7296 261.292 74.2535 282.635 63.5785C303.977 52.9036 310.877 60.0583 324.188 56.7796Z" fill="#E1FFFF"/>
<path d="M79.301 33.384C79.301 33.384 85.1338 19.4181 105.91 20.0188C126.687 20.6196 132.112 33.4627 131.611 37.0379C131.611 37.0379 145.95 31.9361 152.414 43.3807C158.879 54.8253 143.685 63.7189 132.533 62.6848C121.381 61.6506 99.7617 77.5469 78.4189 69.2738C57.076 61.0006 50.0715 66.5456 36.7602 64.0045C23.9228 61.562 16.1414 59.08 4.6471 60.0649L3.33045 60.193C-8.9012 61.5127 16.0624 55.2685 23.7517 55.2685C23.7517 55.2685 33.1657 40.2192 44.2782 41.9723C55.3907 43.7254 53.8897 47.9999 53.8897 47.9999C53.8897 47.9999 56.8259 28.4201 79.301 33.384Z" fill="white"/>
<path d="M211.969 163.5C211.969 163.5 204.978 141.065 180.077 142.03C155.175 142.995 148.674 163.626 149.274 169.369C149.274 169.369 132.089 161.174 124.341 179.558C116.592 197.942 134.803 212.229 148.169 210.568C161.535 208.907 187.446 234.442 213.026 221.152C238.606 207.862 247.001 216.77 262.955 212.688C278.341 208.764 287.667 204.777 301.443 206.359L303.021 206.565C317.681 208.685 287.762 198.654 278.546 198.654C278.546 198.654 267.263 174.48 253.945 177.296C240.626 180.112 242.425 186.978 242.425 186.978C242.425 186.978 238.906 155.526 211.969 163.5Z" fill="white"/>
<path d="M262.955 212.688C278.341 208.764 287.667 204.777 301.444 206.359L303.022 206.565C304.065 206.74 305.12 206.835 306.178 206.85C293.333 201.724 270.735 202.689 259.705 205.426C248.674 208.163 243.246 196.06 243.246 196.06C243.246 196.06 241.194 202.673 224.735 203.702C208.277 204.73 205.436 190.586 205.436 190.586C205.436 190.586 206.304 203.243 186.957 209.002C167.611 214.761 155.002 196.345 155.002 196.345C152.371 200.709 148.285 203.998 143.467 205.632C135.15 208.638 124.641 197.057 124.625 197.041C129.012 206.059 139.632 211.644 148.295 210.568C161.661 208.891 187.573 234.442 213.153 221.152C238.733 207.862 247.001 216.77 262.955 212.688Z" fill="#E1FFFF"/>
<path d="M79.301 109.342C79.301 109.342 85.1338 89.159 105.91 90.0272C126.687 90.8955 132.112 109.456 131.611 114.622C131.611 114.622 145.95 107.249 152.414 123.788C158.879 140.327 143.685 153.18 132.533 151.685C121.381 150.191 99.7617 173.163 78.4189 161.208C57.076 149.252 50.0715 157.265 36.7602 153.593C23.9228 150.063 16.1414 146.476 4.6471 147.899L3.33045 148.084C-8.9012 149.992 16.0624 140.968 23.7517 140.968C23.7517 140.968 33.1657 119.22 44.2782 121.753C55.3907 124.287 53.8897 130.464 53.8897 130.464C53.8897 130.464 56.8259 102.168 79.301 109.342Z" fill="white"/>
</svg>
