<svg width="50" height="50" viewBox="0 0 50 50" fill="none" xmlns="http://www.w3.org/2000/svg">
<rect width="50" height="50" rx="25" fill="white"/>
<path fill-rule="evenodd" clip-rule="evenodd" d="M35.3693 14.9066C35.6988 14.7679 36.0595 14.7201 36.4137 14.7681C36.768 14.8161 37.1029 14.9582 37.3836 15.1795C37.6643 15.4009 37.8805 15.6934 38.0098 16.0267C38.1391 16.36 38.1767 16.7219 38.1187 17.0746L35.0947 35.4173C34.8013 37.1866 32.86 38.2013 31.2373 37.32C29.88 36.5826 27.864 35.4466 26.0507 34.2613C25.144 33.668 22.3667 31.768 22.708 30.416C23.0013 29.26 27.668 24.916 30.3347 22.3333C31.3813 21.3186 30.904 20.7333 29.668 21.6666C26.5987 23.984 21.6707 27.508 20.0413 28.5C18.604 29.3746 17.8547 29.524 16.9587 29.3746C15.324 29.1026 13.808 28.6813 12.5707 28.168C10.8987 27.4746 10.98 25.176 12.5693 24.5066L35.3693 14.9066Z" fill="#2287AA"/>
</svg>
