<svg width="51" height="51" viewBox="0 0 51 51" fill="none" xmlns="http://www.w3.org/2000/svg">
<rect x="0.5" y="0.5" width="50" height="50" rx="25" fill="white"/>
<path d="M33.7143 14.4644C32.4939 13.0707 31.8212 11.2812 31.8214 9.42871H26.3036V31.5716C26.2619 32.7701 25.7563 33.9056 24.8934 34.7385C24.0305 35.5714 22.8779 36.0366 21.6786 36.0358C19.1429 36.0358 17.0357 33.9644 17.0357 31.393C17.0357 28.3216 20 26.018 23.0536 26.9644V21.3216C16.8929 20.5001 11.5 25.2859 11.5 31.393C11.5 37.3394 16.4286 41.5716 21.6607 41.5716C27.2679 41.5716 31.8214 37.018 31.8214 31.393V20.1609C34.0589 21.7677 36.7453 22.6299 39.5 22.6251V17.1073C39.5 17.1073 36.1429 17.268 33.7143 14.4644Z" fill="#2287AA"/>
</svg>
