<svg width="31" height="25" viewBox="0 0 31 25" fill="none" xmlns="http://www.w3.org/2000/svg">
<path d="M15.5 24.5L0.5 9.7L6.22167 0.5H24.7783L30.5 9.7L15.5 24.5ZM17 11V9.17C19.7 9.30333 22.22 9.83 23 10.5117C22.0933 11.3067 18.845 11.885 15.5 11.885C12.155 11.885 8.90667 11.3067 8 10.5117C8.77167 9.82833 11.3 9.31167 14 9.16167V11H17ZM8 10.505V11.6067C8.77167 12.29 11.2917 12.8067 14 12.9567V17H17V12.95C19.7 12.815 22.2267 12.29 23 11.6067V9.41C22.2267 8.72667 19.7 8.20167 17 8.06V6.5H21.5V4.25H9.5V6.5H14V8.06C11.2917 8.20167 8.77167 8.72667 8 9.41V10.505Z" fill="#009393"/>
</svg>
