<svg width="1440" height="913" viewBox="0 0 1440 913" fill="none" xmlns="http://www.w3.org/2000/svg">
<path d="M724.481 266.943C441.343 251.189 221.665 34.0862 -75.8785 163.731C-238.594 234.628 -397.695 494.086 -282.237 628.89C-195.676 729.955 -96.5995 815.457 5.17621 847.725C303.857 942.423 831.268 926.741 1224.33 847.725C1538.78 784.513 1658.84 474.766 1709.55 336.841L1736.06 268.185C1740.59 256.46 1745.74 245.036 1750.16 233.269C1768.5 184.381 1803.76 46.9 1635.15 16.5574C1505.91 -6.70147 1405.55 -14.8889 1314.65 56.5694C1230.54 122.692 1150.51 200.975 1044.73 216.997C969.207 228.436 906.527 234.567 850.721 247.785C809.088 257.646 767.2 269.32 724.481 266.943Z" fill="url(#paint0_linear_287_8209)"/>
<defs>
<linearGradient id="paint0_linear_287_8209" x1="1197.2" y1="-2.83465e-05" x2="1205.14" y2="778.084" gradientUnits="userSpaceOnUse">
<stop stop-color="#CDCDCD"/>
<stop offset="1" stop-color="#6BCCD5"/>
</linearGradient>
</defs>
</svg>
